<?xml version="1.0" ?><!DOCTYPE svg  PUBLIC '-//W3C//DTD SVG 1.1//EN'  'http://www.w3.org/Graphics/SVG/1.1/DTD/svg11.dtd'><svg enable-background="new 0 0 800 800" height="800px" id="Layer_1" version="1.1" viewBox="0 0 800 800" width="800px" xml:space="preserve" xmlns="http://www.w3.org/2000/svg" xmlns:cc="http://creativecommons.org/ns#" xmlns:dc="http://purl.org/dc/elements/1.1/" xmlns:inkscape="http://www.inkscape.org/namespaces/inkscape" xmlns:rdf="http://www.w3.org/1999/02/22-rdf-syntax-ns#" xmlns:sodipodi="http://sodipodi.sourceforge.net/DTD/sodipodi-0.dtd" xmlns:svg="http://www.w3.org/2000/svg" xmlns:xlink="http://www.w3.org/1999/xlink"><path d="M216.225,594.031c3.669,0,7.189-1.459,9.783-4.054l94.279-94.293l69.929,69.929  c2.594,2.595,6.115,4.055,9.783,4.055c3.669,0,7.189-1.46,9.783-4.055l69.93-69.929l94.279,94.293  c2.594,2.595,6.114,4.054,9.783,4.054c3.668,0,7.188-1.459,9.783-4.054l127.372-127.386c19.627-19.621,30.444-45.714,30.444-73.47  c0-27.755-10.811-53.849-30.444-73.469c-19.621-19.627-45.714-30.438-73.47-30.438c-19.039,0-37.248,5.203-53.173,14.736  c-4.945-21.404-15.621-41.748-32.269-58.396c-22.945-22.952-53.457-35.586-85.901-35.586c-28.032,0-54.612,9.425-76.118,26.79  c-21.512-17.364-48.092-26.79-76.125-26.79c-32.451,0-62.963,12.635-85.908,35.586c-16.296,16.296-27.269,36.437-32.336,58.348  c-15.911-9.506-34.079-14.688-53.092-14.688c-27.755,0-53.849,10.811-73.476,30.438c-19.627,19.621-30.438,45.714-30.438,73.469  c0,27.756,10.811,53.849,30.438,73.47l127.379,127.386C209.036,592.572,212.557,594.031,216.225,594.031z M701.364,335.219  c14.404,14.398,22.337,33.546,22.337,53.903c0,20.364-7.933,39.505-22.337,53.903L583.775,560.628l-84.496-84.51l62.74-62.747  c22.587-22.587,34.275-51.93,35.322-81.584c13.892-12.175,31.472-18.897,50.119-18.897  C667.825,312.89,686.959,320.821,701.364,335.219z M257.534,261.122c17.722-17.722,41.282-27.479,66.341-27.479  s48.619,9.756,66.341,27.479c5.196,5.196,14.385,5.189,19.566,0c17.716-17.722,41.275-27.479,66.335-27.479  c25.053,0,48.619,9.756,66.335,27.479c36.579,36.573,36.579,96.097,0,132.683l-72.524,72.531l0,0l0,0L400,536.264L257.541,393.804  c-17.722-17.722-27.485-41.289-27.485-66.348S239.812,278.844,257.534,261.122z M76.299,389.122  c0-20.357,7.932-39.505,22.337-53.903c14.398-14.398,33.539-22.33,53.903-22.33c18.614,0,36.167,6.695,50.052,18.843  c1.067,30.836,13.445,59.7,35.376,81.638l62.747,62.747l-84.489,84.51L98.629,443.025C84.231,428.627,76.299,409.486,76.299,389.122  z" fill="#FD808A"/></svg>